<mxfile host="app.diagrams.net" modified="2024-05-31T02:49:09.558Z" agent="Mozilla/5.0 (Windows NT 10.0; Win64; x64) AppleWebKit/537.36 (KHTML, like Gecko) Chrome/125.0.0.0 Safari/537.36" etag="uWlij7nCv7rMb0m9kCi8" version="24.4.10" type="device">
  <diagram id="C5RBs43oDa-KdzZeNtuy" name="Page-1">
    <mxGraphModel dx="1750" dy="928" grid="1" gridSize="10" guides="1" tooltips="1" connect="1" arrows="1" fold="1" page="1" pageScale="1" pageWidth="827" pageHeight="1169" math="0" shadow="0">
      <root>
        <mxCell id="WIyWlLk6GJQsqaUBKTNV-0" />
        <mxCell id="WIyWlLk6GJQsqaUBKTNV-1" parent="WIyWlLk6GJQsqaUBKTNV-0" />
        <mxCell id="nyiHdGGRh4gMnR2UCOOO-0" value="Admin" style="shape=umlActor;verticalLabelPosition=bottom;verticalAlign=top;html=1;outlineConnect=0;" vertex="1" parent="WIyWlLk6GJQsqaUBKTNV-1">
          <mxGeometry x="240" y="548.5" width="30" height="60" as="geometry" />
        </mxCell>
        <mxCell id="nyiHdGGRh4gMnR2UCOOO-1" value="Mahasiswa" style="shape=umlActor;verticalLabelPosition=bottom;verticalAlign=top;html=1;outlineConnect=0;" vertex="1" parent="WIyWlLk6GJQsqaUBKTNV-1">
          <mxGeometry x="583.5" y="341" width="30" height="60" as="geometry" />
        </mxCell>
        <mxCell id="nyiHdGGRh4gMnR2UCOOO-2" value="Buat Akun" style="ellipse;whiteSpace=wrap;html=1;" vertex="1" parent="WIyWlLk6GJQsqaUBKTNV-1">
          <mxGeometry x="364" y="290" width="120" height="51" as="geometry" />
        </mxCell>
        <mxCell id="nyiHdGGRh4gMnR2UCOOO-4" value="Buat Pengaduan" style="ellipse;whiteSpace=wrap;html=1;" vertex="1" parent="WIyWlLk6GJQsqaUBKTNV-1">
          <mxGeometry x="364" y="355" width="120" height="51" as="geometry" />
        </mxCell>
        <mxCell id="nyiHdGGRh4gMnR2UCOOO-5" value="Liat Status Pengaduan" style="ellipse;whiteSpace=wrap;html=1;" vertex="1" parent="WIyWlLk6GJQsqaUBKTNV-1">
          <mxGeometry x="364" y="420" width="120" height="51" as="geometry" />
        </mxCell>
        <mxCell id="nyiHdGGRh4gMnR2UCOOO-6" value="Liat Semua Pengaduan" style="ellipse;whiteSpace=wrap;html=1;" vertex="1" parent="WIyWlLk6GJQsqaUBKTNV-1">
          <mxGeometry x="364" y="491" width="120" height="51" as="geometry" />
        </mxCell>
        <mxCell id="nyiHdGGRh4gMnR2UCOOO-7" value="Menanggapi Pengaduan" style="ellipse;whiteSpace=wrap;html=1;" vertex="1" parent="WIyWlLk6GJQsqaUBKTNV-1">
          <mxGeometry x="364" y="553" width="120" height="51" as="geometry" />
        </mxCell>
        <mxCell id="nyiHdGGRh4gMnR2UCOOO-8" value="Kelola User" style="ellipse;whiteSpace=wrap;html=1;" vertex="1" parent="WIyWlLk6GJQsqaUBKTNV-1">
          <mxGeometry x="364" y="621" width="120" height="51" as="geometry" />
        </mxCell>
        <mxCell id="nyiHdGGRh4gMnR2UCOOO-9" value="" style="endArrow=none;html=1;rounded=0;fontSize=12;startSize=8;endSize=8;curved=1;entryX=0;entryY=0.5;entryDx=0;entryDy=0;exitX=0.5;exitY=0.5;exitDx=0;exitDy=0;exitPerimeter=0;" edge="1" parent="WIyWlLk6GJQsqaUBKTNV-1" source="nyiHdGGRh4gMnR2UCOOO-0" target="nyiHdGGRh4gMnR2UCOOO-7">
          <mxGeometry width="50" height="50" relative="1" as="geometry">
            <mxPoint x="239" y="424" as="sourcePoint" />
            <mxPoint x="289" y="374" as="targetPoint" />
          </mxGeometry>
        </mxCell>
        <mxCell id="nyiHdGGRh4gMnR2UCOOO-11" value="" style="endArrow=none;html=1;rounded=0;fontSize=12;startSize=8;endSize=8;curved=1;entryX=0;entryY=0.5;entryDx=0;entryDy=0;exitX=0.5;exitY=0.5;exitDx=0;exitDy=0;exitPerimeter=0;" edge="1" parent="WIyWlLk6GJQsqaUBKTNV-1" source="nyiHdGGRh4gMnR2UCOOO-0" target="nyiHdGGRh4gMnR2UCOOO-8">
          <mxGeometry width="50" height="50" relative="1" as="geometry">
            <mxPoint x="245" y="420" as="sourcePoint" />
            <mxPoint x="374" y="321" as="targetPoint" />
          </mxGeometry>
        </mxCell>
        <mxCell id="nyiHdGGRh4gMnR2UCOOO-12" value="" style="endArrow=none;html=1;rounded=0;fontSize=12;startSize=8;endSize=8;curved=1;entryX=0;entryY=0.5;entryDx=0;entryDy=0;exitX=0.5;exitY=0.5;exitDx=0;exitDy=0;exitPerimeter=0;" edge="1" parent="WIyWlLk6GJQsqaUBKTNV-1" source="nyiHdGGRh4gMnR2UCOOO-0" target="nyiHdGGRh4gMnR2UCOOO-6">
          <mxGeometry width="50" height="50" relative="1" as="geometry">
            <mxPoint x="280" y="410" as="sourcePoint" />
            <mxPoint x="374" y="589" as="targetPoint" />
          </mxGeometry>
        </mxCell>
        <mxCell id="nyiHdGGRh4gMnR2UCOOO-13" value="" style="endArrow=none;html=1;rounded=0;fontSize=12;startSize=8;endSize=8;curved=1;entryX=0.5;entryY=0.5;entryDx=0;entryDy=0;exitX=1;exitY=0.5;exitDx=0;exitDy=0;entryPerimeter=0;" edge="1" parent="WIyWlLk6GJQsqaUBKTNV-1" source="nyiHdGGRh4gMnR2UCOOO-2" target="nyiHdGGRh4gMnR2UCOOO-1">
          <mxGeometry width="50" height="50" relative="1" as="geometry">
            <mxPoint x="245" y="420" as="sourcePoint" />
            <mxPoint x="374" y="321" as="targetPoint" />
          </mxGeometry>
        </mxCell>
        <mxCell id="nyiHdGGRh4gMnR2UCOOO-15" value="" style="endArrow=none;html=1;rounded=0;fontSize=12;startSize=8;endSize=8;curved=1;exitX=1;exitY=0.5;exitDx=0;exitDy=0;entryX=0.5;entryY=0.5;entryDx=0;entryDy=0;entryPerimeter=0;" edge="1" parent="WIyWlLk6GJQsqaUBKTNV-1" source="nyiHdGGRh4gMnR2UCOOO-4" target="nyiHdGGRh4gMnR2UCOOO-1">
          <mxGeometry width="50" height="50" relative="1" as="geometry">
            <mxPoint x="494" y="320" as="sourcePoint" />
            <mxPoint x="621" y="343" as="targetPoint" />
          </mxGeometry>
        </mxCell>
        <mxCell id="nyiHdGGRh4gMnR2UCOOO-17" value="" style="rounded=0;whiteSpace=wrap;html=1;fillColor=none;" vertex="1" parent="WIyWlLk6GJQsqaUBKTNV-1">
          <mxGeometry x="337" y="260" width="172" height="450" as="geometry" />
        </mxCell>
        <mxCell id="nyiHdGGRh4gMnR2UCOOO-16" value="" style="endArrow=none;html=1;rounded=0;fontSize=12;startSize=8;endSize=8;curved=1;exitX=1;exitY=0.5;exitDx=0;exitDy=0;entryX=0.5;entryY=0.5;entryDx=0;entryDy=0;entryPerimeter=0;" edge="1" parent="WIyWlLk6GJQsqaUBKTNV-1" source="nyiHdGGRh4gMnR2UCOOO-5" target="nyiHdGGRh4gMnR2UCOOO-1">
          <mxGeometry width="50" height="50" relative="1" as="geometry">
            <mxPoint x="494" y="391" as="sourcePoint" />
            <mxPoint x="634" y="350" as="targetPoint" />
          </mxGeometry>
        </mxCell>
        <mxCell id="nyiHdGGRh4gMnR2UCOOO-18" value="&lt;b&gt;&lt;span style=&quot;font-size:11.0pt;&lt;br/&gt;line-height:107%;font-family:&amp;quot;Calibri&amp;quot;,sans-serif;mso-ascii-theme-font:minor-latin;&lt;br/&gt;mso-fareast-font-family:Calibri;mso-fareast-theme-font:minor-latin;mso-hansi-theme-font:&lt;br/&gt;minor-latin;mso-bidi-font-family:&amp;quot;Times New Roman&amp;quot;;mso-bidi-theme-font:minor-bidi;&lt;br/&gt;mso-ansi-language:EN-US;mso-fareast-language:EN-US;mso-bidi-language:AR-SA&quot; lang=&quot;EN-US&quot;&gt;Sistem Informasi Layanan Pengaduan&amp;nbsp;&lt;/span&gt;&lt;/b&gt;&lt;div&gt;&lt;b&gt;&lt;span style=&quot;font-size:11.0pt;&lt;br/&gt;line-height:107%;font-family:&amp;quot;Calibri&amp;quot;,sans-serif;mso-ascii-theme-font:minor-latin;&lt;br/&gt;mso-fareast-font-family:Calibri;mso-fareast-theme-font:minor-latin;mso-hansi-theme-font:&lt;br/&gt;minor-latin;mso-bidi-font-family:&amp;quot;Times New Roman&amp;quot;;mso-bidi-theme-font:minor-bidi;&lt;br/&gt;mso-ansi-language:EN-US;mso-fareast-language:EN-US;mso-bidi-language:AR-SA&quot; lang=&quot;EN-US&quot;&gt;Kerusakan Fasilitas Kampus&lt;/span&gt;&lt;/b&gt;&lt;/div&gt;" style="text;html=1;align=center;verticalAlign=middle;whiteSpace=wrap;rounded=0;fontSize=16;" vertex="1" parent="WIyWlLk6GJQsqaUBKTNV-1">
          <mxGeometry x="234.5" y="220" width="379" height="30" as="geometry" />
        </mxCell>
        <mxCell id="nyiHdGGRh4gMnR2UCOOO-20" value="Petugas" style="shape=umlActor;verticalLabelPosition=bottom;verticalAlign=top;html=1;outlineConnect=0;" vertex="1" parent="WIyWlLk6GJQsqaUBKTNV-1">
          <mxGeometry x="583.5" y="510" width="30" height="60" as="geometry" />
        </mxCell>
        <mxCell id="nyiHdGGRh4gMnR2UCOOO-22" value="" style="endArrow=none;html=1;rounded=0;exitX=0.5;exitY=0.5;exitDx=0;exitDy=0;exitPerimeter=0;entryX=1;entryY=0.5;entryDx=0;entryDy=0;" edge="1" parent="WIyWlLk6GJQsqaUBKTNV-1" source="nyiHdGGRh4gMnR2UCOOO-20" target="nyiHdGGRh4gMnR2UCOOO-6">
          <mxGeometry width="50" height="50" relative="1" as="geometry">
            <mxPoint x="250" y="590" as="sourcePoint" />
            <mxPoint x="540" y="430" as="targetPoint" />
          </mxGeometry>
        </mxCell>
        <mxCell id="nyiHdGGRh4gMnR2UCOOO-24" value="" style="endArrow=none;html=1;rounded=0;exitX=0.5;exitY=0.5;exitDx=0;exitDy=0;exitPerimeter=0;entryX=1;entryY=0.5;entryDx=0;entryDy=0;" edge="1" parent="WIyWlLk6GJQsqaUBKTNV-1" source="nyiHdGGRh4gMnR2UCOOO-20" target="nyiHdGGRh4gMnR2UCOOO-7">
          <mxGeometry width="50" height="50" relative="1" as="geometry">
            <mxPoint x="595" y="560" as="sourcePoint" />
            <mxPoint x="494" y="527" as="targetPoint" />
          </mxGeometry>
        </mxCell>
      </root>
    </mxGraphModel>
  </diagram>
</mxfile>
